<svg xmlns="http://www.w3.org/2000/svg" viewBox="0 0 1200 400"><defs><linearGradient id="bg" x1="0" y1="0" x2="1" y2="1"><stop stop-color="#102a43"/><stop offset="1" stop-color="#071b2d"/></linearGradient></defs><rect width="1200" height="400" rx="34" fill="url(#bg)"/><path d="M0 130C150 70 270 168 420 112s280 48 420 0 250 14 360-45v333H0z" fill="#0b2237"/><path d="M0 225c175-72 295 38 450-24s270 52 430 4 215 18 320-18v213H0z" fill="#091d30"/><text x="72" y="168" fill="#edf4f5" font-family="Inter,Segoe UI,Arial,sans-serif" font-size="60" font-weight="700">PernoStock Web</text><text x="74" y="216" fill="#9fb3c2" font-family="Inter,Segoe UI,Arial,sans-serif" font-size="24" letter-spacing="2">industria · catálogo · presencia web</text><rect x="74" y="247" width="150" height="5" rx="3" fill="#3bd3df"/><rect x="244" y="247" width="64" height="5" rx="3" fill="#436579"/><g transform="translate(830 72)"><rect x="18" y="38" width="314" height="202" rx="24" fill="#edf4f5"/><rect x="18" y="38" width="314" height="38" rx="24" fill="#cbdce2"/><circle cx="42" cy="57" r="6" fill="#3bd3df"/><circle cx="61" cy="57" r="6" fill="#6f8b99"/><rect x="50" y="102" width="120" height="84" rx="12" fill="#173a53"/><path d="M56 178l38-44 25 29 18-21 27 36z" fill="#89a7b5"/><rect x="195" y="108" width="102" height="14" rx="7" fill="#3bd3df"/><rect x="195" y="139" width="82" height="10" rx="5" fill="#7894a2"/><rect x="195" y="162" width="68" height="10" rx="5" fill="#7894a2"/><path d="M220 191l42 20v48l-42 20-42-20v-48z" fill="#3bd3df"/><circle cx="220" cy="235" r="25" fill="#0d273d"/><circle cx="220" cy="235" r="13" fill="none" stroke="#edf4f5" stroke-width="6"/></g></svg>